<svg xmlns="http://www.w3.org/2000/svg" width="20" height="20" viewBox="0 0 20 20" fill="none">
  <path d="M13.318 5.098C14.015 4.257 14.497 3.083 14.369 1.917C13.366 1.961 12.154 2.586 11.432 3.427C10.785 4.171 10.217 5.37 10.368 6.489C11.491 6.575 12.598 5.932 13.318 5.098ZM16.861 14.338C16.509 15.151 16.087 15.9 15.592 16.584C14.912 17.527 14.358 18.178 13.927 18.54C13.262 19.134 12.548 19.441 11.786 19.462C11.239 19.462 10.578 19.307 9.801 18.997C9.023 18.687 8.31 18.532 7.664 18.532C6.987 18.532 6.261 18.687 5.489 18.997C4.716 19.307 4.092 19.471 3.616 19.492C2.886 19.523 2.154 19.207 1.42 18.54C0.95 18.147 0.372 17.473 -0.316 16.516C-1.056 15.494 -1.664 14.307 -2.141 12.956C-2.65 11.498 -2.905 10.086 -2.905 8.719C-2.905 7.154 -2.569 5.803 -1.896 4.67C-1.367 3.755 -0.662 3.033 0.221 2.503C1.104 1.974 2.056 1.704 3.079 1.69C3.658 1.69 4.416 1.87 5.354 2.229C6.29 2.587 6.892 2.767 7.159 2.767C7.359 2.767 8.036 2.557 9.189 2.139C10.279 1.753 11.199 1.594 11.949 1.663C13.982 1.83 15.511 2.629 16.536 4.061C14.714 5.165 13.813 6.709 13.834 8.692C13.852 10.236 14.408 11.519 15.5 12.541C15.993 13.017 16.545 13.394 17.157 13.674C17.024 14.06 16.925 14.281 16.861 14.338Z" fill="currentColor" transform="translate(2.905) scale(0.75)"/>
</svg>
