<svg xmlns="http://www.w3.org/2000/svg" width="128" height="128" viewBox="0 0 128 128" fill="none">
  <g fill="#8A9D80">
    <path d="M64 24.5L78.5 33.2L64 41.9L49.5 33.2L64 24.5Z"/>
    <path d="M37.5 40.2L52 48.9L37.5 57.6L23 48.9L37.5 40.2Z"/>
    <path d="M90.5 40.2L105 48.9L90.5 57.6L76 48.9L90.5 40.2Z"/>
    <path d="M64 56L78.5 64.7L64 73.4L49.5 64.7L64 56Z"/>
    <path d="M64 87.5L78.5 96.2L64 104.9L49.5 96.2L64 87.5Z"/>
    <path d="M52 48.9L64 41.9V56L52 64.7V48.9Z"/>
    <path d="M76 48.9L64 41.9V56L76 64.7V48.9Z"/>
    <path d="M78.5 33.2L90.5 40.2V57.6L78.5 64.7V49L64 56V73.4L49.5 64.7V49L37.5 57.6V40.2L49.5 33.2L64 41.9L78.5 33.2Z"/>
    <path d="M23 48.9L35 55.9V73.2L23 80.3V48.9Z"/>
    <path d="M37.5 57.6L49.5 64.7V82L37.5 89V57.6Z"/>
    <path d="M23 48.9L37.5 57.6L23 66.3L8.5 57.6L23 48.9Z"/>
    <path d="M8.5 57.6L20.5 64.7V82L8.5 75V57.6Z"/>
    <path d="M105 48.9L119.5 57.6L105 66.3L90.5 57.6L105 48.9Z"/>
    <path d="M90.5 57.6L102.5 64.7V82L90.5 89V57.6Z"/>
    <path d="M119.5 57.6L107.5 64.7V82L119.5 75V57.6Z"/>
    <path d="M49.5 96.2L37.5 89V106.4L49.5 113.5V96.2Z"/>
    <path d="M78.5 96.2L90.5 89V106.4L78.5 113.5V96.2Z"/>
    <path d="M64 104.9L49.5 96.2V113.5L64 122.2V104.9Z"/>
    <path d="M64 104.9L78.5 96.2V113.5L64 122.2V104.9Z"/>
  </g>
</svg>
